/* XPM */
static char *_cac2eb6b93b4eaa98a8f70ff902b8ddar0wZtjnJJRILHed[] = {
/* columns rows colors chars-per-pixel */
"48 48 10 1 ",
"  c #211F30",
". c #E44A4A",
"X c #F18B72",
"o c #9C1B4D",
"O c #F9BFA7",
"+ c #CC3048",
"@ c #0C9C06",
"# c #0CC005",
"$ c #A0EB14",
"% c #F0F9B6",
/* pixels */
"                                                ",
" .XXXXXo.XXXXXXXXXXXXXXo.XXXXXXXXXXXXXXo.XXXXXO ",
" +.....o...............o...............o......X ",
" +.....o..............@@@..............o......X ",
" +..... .............@@##@............. ....... ",
"  oooo   ooooooooooo@@#$$#@   oooooooo   ooooo  ",
" o++++++++++o.......@@#$%$@. ...............o.X ",
" o++++++++++o......@@#$%@#$@o...............o.X ",
" o++++++++++o......@@#$@#@$@o...............o.X ",
" o++++++++++ ......@@#@###@@ ............... .. ",
" o   oooooo   oooo@@##@###@$@ oooo   oooooo   o ",
" o+ ..............@@#@#####@@...... ..........X ",
" o+o..............@@$@##$##@@......o..........X ",
" o+o..............@@$@#$$$#@@......o..........X ",
" o+o..............@@$@#$##$@@......o..........X ",
" o+ ..............@@$@%#@@##@...... ........... ",
" o   o   oooooooo@@$@%#@##@$#@oooo   o   oooooo ",
" o+++++ .........@@$@%#@##@$#@......... ......X ",
" o+++++o.........@@$@%@####@$@.........o......X ",
" o+++++o.........@@$@#@#$$#@$@.........o......X ",
" o+++++ .........@@$@#@#%$$@$@......... ....... ",
"  oooo   oo   ooo@@#@#@%$#$@%@oooooooo   oo   o ",
" o++++++++++ ....@@#@#@%###@%@.............. .X ",
" o++++++++++o....@@#@#@$#@##@@..............o.X ",
" o++++++++++o....@@#@#@$@#@#@@..............o.X ",
" o++++++++++ ....@@#@#@$@#@#@@.............. .. ",
" o   oooooo   ooo@@#@$@#@$@#@@oooo   oooooo   o ",
" o+ .............@@#@$@#@$@$@@..... ..........X ",
" o+o.............@@$@$@##$@$@@.....o..........X ",
" o+o.......@.....@@$@$$@$$@$@@.....o..........X ",
" o+o.............@@$@$$@$@##@@.....o..........X ",
" o+ .............@@$$@$@#@#@#@..... ........... ",
" o   ooooooooooooo@@$@$@#@$@@ooooo   oooooooooo ",
" o+++++o....@.....@@$@#@#@%@@......%...o......X ",
" o+++++o..........@@%@#%@#%@@..........o......X ",
" o+++++o..........@@%@#$%%$@@..........o......X ",
" o+++++ ..........@@#%@#$#@#@.......... ....... ",
"  oooo   oo   oooo@@#$@###@#@ooooooooo   oo   o ",
" o++++++++++ ......@@$$@#@#@o.##............ .X ",
" o++++++++++o......@@#$$@#$@o.##............o.X ",
" o++++++++++o......@@####$%@o...............o.X ",
" o++++++++++ .......@@##$%@. ............... .. ",
" o   oooooo   oooo  @@####@   oooo   oooooo   o ",
" o+ +++++++++++++++ +@@##@+++++++++ ++++++++++X ",
" o+o+++++++++++++++o++@@@++#+++++++o++++++++++X ",
" o+o+++++++++++++++o+++++++++++++++o++++++++++X ",
" ooooooooooooooooooooooooooooooooooooooooooooo+ ",
"                                                "
};
