/* XPM */
static char *result[] = {
/* columns rows colors chars-per-pixel */
"48 48 9 1 ",
"  c #211F30",
". c #E44A4A",
"X c #F18B72",
"o c #9C1B4D",
"O c #F9BFA7",
"+ c #CC3048",
"@ c #2FACDA",
"# c white",
"$ c #ACF7FA",
/* pixels */
"                                                ",
" .XXXXXo.XXXXXXXXXXXXXXo.XXXXXXXXXXXXXXo.XXXXXO ",
" +.....o...............o...............o......X ",
" +.....o...............o...............o......X ",
" +..... ............... ............... ....... ",
"  oooo   ooooooooooooo   oo   oooooooo   ooooo  ",
" o++++++++++o............... ...............o.X ",
" o++++++++++o...............o...............o.X ",
" o++++++++++o...............o...............o.X ",
" o++++++++++ ............... ............... .. ",
" o   oooooo   oooo@@@@@@@@@@@ oooo   oooooo   o ",
" o+ ............@@###########@@.... ..........X ",
" o+o...........@###############@...o..........X ",
" o+o..........@######$$$#######$@..o..........X ",
" o+o.........@##################$@.o..........X ",
" o+ .........@#####$$$$$$#######$@. ........... ",
" o   o   ooo@####################$@  o   oooooo ",
" o+++++ ....@###@@@##############$@.... ......X ",
" o+++++o....@##@###@##@@@@@######$@....o......X ",
" o+++++o...@###@###@##@###@#######$@...o......X ",
" o+++++ ...@###@###@##@###@#######$@... ....... ",
"  oooo   oo@###$@@@$##$@@@$#######$@oo   oo   o ",
" o+++++++++@#######@@@@###########$@........ .X ",
" o+++++++++@######@####@##########$@........o.X ",
" o+++++++++@######@@@@@@##########$@........o.X ",
" o+++++++++@#####@@@@@@@@#########$@........ .. ",
" o   oooooo@#####@@@@@@@@#######$#$@ oooooo   o ",
" o+ .......@#####@###@@#@#########$@..........X ",
" o+o.......@#####$@@@@@@$######$$#$@..........X ",
" o+o.......@##############$####$$#$@..........X ",
" o+o.......@########$$############$$@.........X ",
" o+ .......@###$##########$###$###$$@.......... ",
" o   oooooo@###$#####$####$###$##$$$@oooooooooo ",
" o+++++o...@###@$#########$###@$$$$$$@@o......X ",
" o+++++o...@$##@@$$$$$$$$$@$##@$$$$$$$$@......X ",
" o+++++o....@$$@.@@@@@@@@@.@$$@@@@@@@@@@......X ",
" o+++++ .....@@........ ....@@......... ....... ",
"  oooo   oo   oooooooo   ooooooooooooo   oo   o ",
" o++++++++++ ...............o............... .X ",
" o++++++++++o...............o...............o.X ",
" o++++++++++o...............o...............o.X ",
" o++++++++++ ............... ............... .. ",
" o   oooooo   oooo   oooooo   oooo   oooooo   o ",
" o+ +++++++++++++++ +++++++++++++++ ++++++++++X ",
" o+o+++++++++++++++o+++++++++++++++o++++++++++X ",
" o+o+++++++++++++++o+++++++++++++++o++++++++++X ",
" ooooooooooooooooooooooooooooooooooooooooooooo+ ",
"                                                "
};
