/* XPM */
static char *f02d556e76fe4a46d4b2b3f175062db5pQ2mWXjZov6UQxnK[] = {
/* columns rows colors chars-per-pixel */
"48 48 9 1 ",
"  c #211F30",
". c #E44A4A",
"X c #F18B72",
"o c #9C1B4D",
"O c #F9BFA7",
"+ c #CC3048",
"@ c #CC3048",
"# c white",
"$ c #ACF7FA",
/* pixels */
"                                                ",
" .XXXXXo.XXXXXXXXXXXXXXo.XXXXXXXXXXXXXXo.XXXXXO ",
" +.....o...............o...............o......X ",
" +.....o...............o...............o......X ",
" +..... ............... ............... ....... ",
"  oooo   ooooooooooooo   oo   oooooooo   ooooo  ",
" o++++++++++o............... ...............o.X ",
" o++++++++++o...............o...............o.X ",
" o++++++++++o...............o...............o.X ",
" o++++++++++ ............... ............... .. ",
" o   oooooo   oooo   oooooo   oooo   oooooo   o ",
" o+ ............... @@@@@@@@@@@.... ..........X ",
" o+o..............@@###########@@..o..........X ",
" o+o.............@###############@.o..........X ",
" o+o............@$#######$$$######@o..........X ",
" o+ ...........@$##################@........... ",
" o   o   oooooo@$#######$$$$$$#####@ o   oooooo ",
" o+++++ ......@$####################@.. ......X ",
" o+++++o......@$##############@@@###@..o......X ",
" o+++++o......@$######@@@@@##@###@##@..o......X ",
" o+++++ .....@$#######@###@##@###@###@. ....... ",
"  oooo   oo  @$#######@###@##@###@###@   oo   o ",
" o++++++++++ @$#######$@@@$##$@@@$###@...... .X ",
" o++++++++++o@$##########@@@@@@######@......o.X ",
" o++++++++++o@$#########@######@#####@......o.X ",
" o++++++++++ @$#########@@@@@@@@#####@...... .. ",
" o   oooooo  @$#$#######@@@@@@@@#####@ooooo   o ",
" o+ .........@$#########@#@@###@#####@........X ",
" o+o.........@$#$$######$@@@@@@$#####@........X ",
" o+o.........@$#$$####$##############@........X ",
" o+o........@$$############$$########@........X ",
" o+ ........@$$###$###$##########$###@......... ",
" o   ooooooo@$$$##$###$####$#####$###@ooooooooo ",
" o+++++o..@@$$$$$$@###$#########$@###@.o......X ",
" o+++++o.@$$$$$$$$@##$@$$$$$$$$$@@##$@.o......X ",
" o+++++o.@@@@@@@@@@$$@.@@@@@@@@@.@$$@..o......X ",
" o+++++ ...........@@.. ..........@@... ....... ",
"  oooo   oo   oooooooo   ooooooooooooo   oo   o ",
" o++++++++++ ...............o............... .X ",
" o++++++++++o...............o...............o.X ",
" o++++++++++o...............o...............o.X ",
" o++++++++++ ............... ............... .. ",
" o   oooooo   oooo   oooooo   oooo   oooooo   o ",
" o+ +++++++++++++++ +++++++++++++++ ++++++++++X ",
" o+o+++++++++++++++o+++++++++++++++o++++++++++X ",
" o+o+++++++++++++++o+++++++++++++++o++++++++++X ",
" ooooooooooooooooooooooooooooooooooooooooooooo+ ",
"                                                "
};
