/* XPM */
static char *result[] = {
/* columns rows colors chars-per-pixel */
"48 48 9 1 ",
"  c #211F30",
". c #E44A4A",
"X c #F18B72",
"o c #9C1B4D",
"O c #F9BFA7",
"+ c #CC3048",
"@ c #079100",
"# c white",
"$ c #ACF7FA",
/* pixels */
"                                                ",
" .XXXXXo.XXXXXXXXXXXXXXo.XXXXXXXXXXXXXXo.XXXXXO ",
" +.....o...............o...............o......X ",
" +.....o...............o...............o......X ",
" +..... ............... ............... ....... ",
"  oooo   ooooooooooooo   oo   oooooooo   ooooo  ",
" o++++++++++o............... ...............o.X ",
" o++++++++++o...............o...............o.X ",
" o++++++++++o...............o...............o.X ",
" o++++++++++ ........@@@@@@@@@.............. .. ",
" o   oooooo   oooo @@#########@@oo   oooooo   o ",
" o+ ..............@#############@.. ..........X ",
" o+o.............@$######$$$#####@.o..........X ",
" o+o............@$################@o..........X ",
" o+o............@$######$$$$$$####@o..........X ",
" o+ ...........@$##################@........... ",
" o   o   oooooo@$#############@@###@ o   oooooo ",
" o+++++ .......@$######@@@@##@##@##@... ......X ",
" o+++++o......@$#######@##@##@##@###@..o......X ",
" o+++++o......@$#######@##@##@##@###@..o......X ",
" o+++++ ......@$#######$@@$##$@@$###@.. ....... ",
"  oooo   oo   @$##########@@@@######@o   oo   o ",
" o++++++++++ .@$#########@####@#####@....... .X ",
" o++++++++++o.@$#########@@@@@@#####@.......o.X ",
" o++++++++++o.@$#########@@@@@@#####@.......o.X ",
" o++++++++++ .@$#########@@@@@@#####@....... .. ",
" o   oooooo   @$#########@@@@@@#####@oooooo   o ",
" o+ ..........@$#$#######@@@@@@#####@.........X ",
" o+o..........@$#########@#@##@#####@.........X ",
" o+o..........@$#$$######$@@@@$#####@.........X ",
" o+o..........@$#$$####$############@.........X ",
" o+ ..........@$###########$$#######@.......... ",
" o   oooooooo@$$###$###$########$###@oooooooooo ",
" o+++++o.....@$$###$###$###$####$###@..o......X ",
" o+++++o.....@$$$##$###$########$###@..o......X ",
" o+++++o...@@$$$$$$@###$#######$@###@..o......X ",
" o+++++ ..@$$$$$$$$@##$@$$$$$$$@@##$@.. ....... ",
"  oooo   o@@@@@@@@@@$$@ @@@@@@@o@$$@oo   oo   o ",
" o++++++++++ .......@@......o....@@......... .X ",
" o++++++++++o...............o...............o.X ",
" o++++++++++o...............o...............o.X ",
" o++++++++++ ............... ............... .. ",
" o   oooooo   oooo   oooooo   oooo   oooooo   o ",
" o+ +++++++++++++++ +++++++++++++++ ++++++++++X ",
" o+o+++++++++++++++o+++++++++++++++o++++++++++X ",
" o+o+++++++++++++++o+++++++++++++++o++++++++++X ",
" ooooooooooooooooooooooooooooooooooooooooooooo+ ",
"                                                "
};
