/* XPM */
static char *_7d066513de146a4a756ee3a4efb13c5bdcSfnhNz3HCl8Tj[] = {
/* columns rows colors chars-per-pixel */
"48 48 14 1 ",
"  c #211F30",
". c #E44A4A",
"X c #F18B72",
"o c #9C1B4D",
"O c #F9BFA7",
"+ c #CC3048",
"@ c #A4CC42",
"# c #72A11D",
"$ c #28860F",
"% c #E1CA33",
"& c #F7EC8A",
"* c #BA570B",
"= c #CE8B16",
"- c white",
/* pixels */
"                                                ",
" .XXXXXo.XXXXXXXXXXXXXXo.XXXXXXXXXXXXXXo.XXXXXO ",
" +.....o...............o...............o......X ",
" +.....o...............o...............o......X ",
" +..... ............... ............... ....... ",
"  oooo   ooooooooooooo   oo   oooooooo   ooooo  ",
" o++++++++++o............... ...............o.X ",
" o++++++++++o...............o...............o.X ",
" o++++++++++o...............o...............o.X ",
" o++++++++++ ............... ............... .. ",
" o   oooooo   oooo   oooooo   oooo   oooooo   o ",
" o+ ............... ............... ..........X ",
" o+o...............o...............o..........X ",
" o+o...............o...............o..........X ",
" o+o...............o...............o..........X ",
" o+ ............... ............... ........... ",
" o   o   ooooooooo   ooooooooooooo   o   oooooo ",
" o+++++ ...........   .o............... ......X ",
" o+++++o.......... @# .o...............o......X ",
" o+++++o.......... #$ .o...............o......X ",
" o+++++ .......... $         .......... ....... ",
"  oooo   oo   ooo %&&%*=%%%%  oooooooo   oo   o ",
" o++++++++++ .... %&-&******  .............. .X ",
" o++++++++++o.... %&&&%*===== ..............o.X ",
" o++++++++++o.... %&&--%*****  .............o.X ",
" o++++++++++ .... %%&&--&&&&&% ............. .. ",
" o   oooooo   oooo %&&&---&&&% ooo   oooooo   o ",
" o+ .............. %%&&&&&&&%% .... ..........X ",
" o+o............... %%%&&&%%% .....o..........X ",
" o+o...............o  %%%%%  ......o..........X ",
" o+o...............o..     ........o..........X ",
" o+ ............... ............... ........... ",
" o   ooooooooooooo   o   ooooooooo   oooooooooo ",
" o+++++o............... ...............o......X ",
" o+++++o...............o...............o......X ",
" o+++++o...............o...............o......X ",
" o+++++ ............... ............... ....... ",
"  oooo   oo   oooooooo   ooooooooooooo   oo   o ",
" o++++++++++ ...............o............... .X ",
" o++++++++++o...............o...............o.X ",
" o++++++++++o...............o...............o.X ",
" o++++++++++ ............... ............... .. ",
" o   oooooo   oooo   oooooo   oooo   oooooo   o ",
" o+ +++++++++++++++ +++++++++++++++ ++++++++++X ",
" o+o+++++++++++++++o+++++++++++++++o++++++++++X ",
" o+o+++++++++++++++o+++++++++++++++o++++++++++X ",
" ooooooooooooooooooooooooooooooooooooooooooooo+ ",
"                                                "
};
