/* XPM */
static char *fcd6802976774211f816c26a789e7798pYuG7OiK2xwP8zN6[] = {
/* columns rows colors chars-per-pixel */
"48 48 14 1 ",
"  c #211F30",
". c #E44A4A",
"X c #F18B72",
"o c #9C1B4D",
"O c #F9BFA7",
"+ c #CC3048",
"@ c #D8E1E4",
"# c white",
"$ c #48475B",
"% c #F2BC7E",
"& c #FBDFB1",
"* c #D2612F",
"= c #F89CC0",
"- c #EA71BD",
/* pixels */
"                                                ",
" .XXXXXo.XXXXXXXXXXXXXXo.XXXXXXXXXXXXXXo.XXXXXO ",
" +.....o...............o...............o......X ",
" +.....o...............o...............o......X ",
" +..... ............... ............... ....... ",
"  oooo   ooooooooooooo   oo   oooooooo   ooooo  ",
" o++++++++++o............... ...............o.X ",
" o++++++++++o...............o...............o.X ",
" o++++++++++o...............o...............o.X ",
" o++++++++++ ............... ............... .. ",
" o   oooooo   oo     oooooo    ooo   oooooo   o ",
" o+ ........... @## ....... @## ... ..........X ",
" o+o.......... @#### ..... @@### ..o..........X ",
" o+o.......... @####        @@## ..o..........X ",
" o+o.......... @################ ..o..........X ",
" o+ ......... @#@@##$$$$$$$$$$### . ........... ",
" o   o   oooo @#@@#$%%%%%%%%%%$##    o   oooooo ",
" o+++++ ..... @### %%&&&&&&**&%$# ..... ......X ",
" o+++++o..... @#@# %&****&*##*&$# .....o......X ",
" o+++++o..... @### %&*##*&*##*&$# .....o......X ",
" o+++++ ..... @### %&*##*&*##*&$# ..... ....... ",
"  oooo   oo   @### %&%**%&%**%&$# oooo   oo   o ",
" o++++++++++  @###@ %&&&&&&&&&$@# .......... .X ",
" o++++++++++o @####@          @## ..........o.X ",
" o++++++++++o. =###############= ...........o.X ",
" o++++++++++ .. ===##########== ............ .. ",
" o   oooooo   oo  =----------  ooo   oooooo   o ",
" o+ ........... =====-------==  ... ..........X ",
" o+o.......... ===-====---==== - ..o..........X ",
" o+o......... %  - =====-=====  % .o..........X ",
" o+o......... &&% -=========== %% .o..........X ",
" o+ ..........   @@#@#######@@   .. ........... ",
" o   ooooooooooo -============ ooo   oooooooooo ",
" o+++++o........ -==        == ........o......X ",
" o+++++o........ -=- ..o.. -=- ........o......X ",
" o+++++o........ -- ...o.. -- .........o......X ",
" o+++++ .........  .... ...  .......... ....... ",
"  oooo   oo   oooooooo   ooooooooooooo   oo   o ",
" o++++++++++ ...............o............... .X ",
" o++++++++++o...............o...............o.X ",
" o++++++++++o...............o...............o.X ",
" o++++++++++ ............... ............... .. ",
" o   oooooo   oooo   oooooo   oooo   oooooo   o ",
" o+ +++++++++++++++ +++++++++++++++ ++++++++++X ",
" o+o+++++++++++++++o+++++++++++++++o++++++++++X ",
" o+o+++++++++++++++o+++++++++++++++o++++++++++X ",
" ooooooooooooooooooooooooooooooooooooooooooooo+ ",
"                                                "
};
