/* XPM */
static char *_2fe5deecca14e55df0ec22d945a9a4axLaHUuq3mjYcP1qy[] = {
/* columns rows colors chars-per-pixel */
"48 48 10 1 ",
"  c #211F30",
". c #E44A4A",
"X c #F18B72",
"o c #9C1B4D",
"O c #F9BFA7",
"+ c #CC3048",
"@ c #694974",
"# c #785384",
"$ c #8E6A9A",
"% c #BEABC4",
/* pixels */
"                                                ",
" .XXXXXo.XXXXXXXXXXXXXXo.XXXXXXXXXXXXXXo.XXXXXO ",
" +.....o....@..........o...............o......X ",
" +.....o..............@@@..............o......X ",
" +..... .............@@##@............. ....... ",
"  oooo   ooooooooooo@@#$$#@   oooooooo   ooooo  ",
" o++++++++++o.......@@#$%$@. ...............o.X ",
" o++++++++++o......@@#$%@#$@o@@.............o.X ",
" o++++++++++o......@@#$@#@$@o@@.............o.X ",
" o++++++++++ ......@@#@###@@ ...@........... .. ",
" o   oooooo   oooo@@##@###@$@ oooo   oooooo   o ",
" o+ ..............@@#@#####@@...... ..........X ",
" o+o..............@@$@##$##@@......o..........X ",
" o+o..............@@$@#$$$#@@......o..........X ",
" o+o..............@@$@#$##$@@......o..........X ",
" o+ ..............@@$@%#@@##@...... ........... ",
" o   o   oooooooo@@$@%#@##@$#@oooo   o   oooooo ",
" o++@++ .........@@$@%#@##@$#@......... ......X ",
" o+++++o.........@@$@%@####@$@.........o......X ",
" o+++++o.........@@$@#@#$$#@$@.........o......X ",
" o+++++ .........@@$@#@#%$$@$@......... ....... ",
"  oooo   oo   ooo@@#@#@%$#$@%@oooooooo   oo   o ",
" o++++++++++ ....@@#@#@%###@%@.............. .X ",
" o++++++++++o....@@#@#@$#@##@@..............o.X ",
" o++++++++++o....@@#@#@$@#@#@@..............o.X ",
" o++++++++++ ....@@#@#@$@#@#@@.............. .. ",
" o   oooooo   ooo@@#@$@#@$@#@@oooo   oooooo   o ",
" o+ ....@........@@#@$@#@$@$@@..... ..........X ",
" o+o.............@@$@$@##$@$@@.....o..........X ",
" o+o.............@@$@$$@$$@$@@.....o..........X ",
" o+o.............@@$@$$@$@##@@.....o..........X ",
" o+ .............@@$$@$@#@#@#@..... ........... ",
" o   ooooooooooooo@@$@$@#@$@@ooooo   oooooooooo ",
" o+++++o..........@@$@#@#@%@@..........o......X ",
" o+++++o..........@@%@#%@#%@@..........o......X ",
" o+++++o..........@@%@#$%%$@@..........o......X ",
" o+++++ ..........@@#%@#$#@#@.......... ....... ",
"  oooo   oo   oooo@@#$@###@#@ooooooooo   oo   o ",
" o++++++++++ ......@@$$@#@#@o............... .X ",
" o++++++++++o......@@#$$@#$@o...............o.X ",
" o++++++++++o......@@####$%@o...............o.X ",
" o++++++++++ .......@@##$%@. ............... .. ",
" o   oooooo   oo$o  @@####@   oooo   oooooo   o ",
" o+ +++++++++%+++++ +@@##@+++++++++ ++++++++++X ",
" o+o+++++++++++++++o++@@@++++++++++o++++++++++X ",
" o+o+++++++++++++++o+++++++++++++++o++++++++++X ",
" ooooooooooooooooooooooooooooooooooooooooooooo+ ",
"                                                "
};
