/* XPM */
static char *_ba24c69aa8c40faa9fab90ea2e6d3d7D3gwWzsehckVreRJ[] = {
/* columns rows colors chars-per-pixel */
"48 48 9 1 ",
"  c #211F30",
". c #E44A4A",
"X c #F18B72",
"o c #9C1B4D",
"O c #F9BFA7",
"+ c #CC3048",
"@ c #ff0000",
"# c white",
"$ c #ACF7FA",
/* pixels */
"                                                ",
" .XXXXXo.XXXXXXXXXXXXXXo.XXXXXXXXXXXXXXo.XXXXXO ",
" +.....o...............o...............o......X ",
" +.....o...............o...............o......X ",
" +..... ............... ............... ....... ",
"  oooo   ooooooooooooo   oo   oooooooo   ooooo  ",
" o++++++++++o............... ...............o.X ",
" o++++++++++o...............o...............o.X ",
" o++++++++++o...............o...............o.X ",
" o++++++++++ ............... ............... .. ",
" o   oooooo   oooo   oooooo   oooo   oooooo   o ",
" o+ ............... ............... ..........X ",
" o+o...............@@@@@@@@@@@@@...o..........X ",
" o+o.............@@#############@@.o..........X ",
" o+o............@#################@o..........X ",
" o+ ...........@$#######$$$$$######@........... ",
" o   o   ooooo@$####################@o   oooooo ",
" o+++++ ......@$#######$$$$$$$$#####@.. ......X ",
" o+++++o.....@$######################@.o......X ",
" o+++++o.....@$###############@@@@###@.o......X ",
" o+++++ .....@$######@@@@@@##@####@##@. ....... ",
"  oooo   oo @$#######@####@##@####@###@  oo   o ",
" o++++++++++@$#######$@@@@$##$@@@@$###@..... .X ",
" o++++++++++@$##########@@@@@@@@######@.....o.X ",
" o++++++++++@$#########@########@#####@.....o.X ",
" o++++++++++@$#$#######@@@@@@@@@@#####@..... .. ",
" o   oooooo @$#########@#@@@####@#####@oooo   o ",
" o+ ........@$#$$######$@@@@@@@@$#####@.......X ",
" o+o........@$#$$####$################@.......X ",
" o+o.......@$$############$$$$########@.......X ",
" o+o.......@$$##$####$###########$####@.......X ",
" o+ .......@$$$#$####$####$$$####$####@........ ",
" o   oooo@@$$$$$@####$##########$@####@oooooooo ",
" o+++++o@$$$$$$$@###$@$$$$$$$$$$@@###$@o......X ",
" o+++++o@@@@@@@@@$$$@.@@@@@@@@@@.@$$$@.o......X ",
" o+++++o.........@@@...o..........@@@..o......X ",
" o+++++ ............... ............... ....... ",
"  oooo   oo   oooooooo   ooooooooooooo   oo   o ",
" o++++++++++ ...............o............... .X ",
" o++++++++++o...............o...............o.X ",
" o++++++++++o...............o...............o.X ",
" o++++++++++ ............... ............... .. ",
" o   oooooo   oooo   oooooo   oooo   oooooo   o ",
" o+ +++++++++++++++ +++++++++++++++ ++++++++++X ",
" o+o+++++++++++++++o+++++++++++++++o++++++++++X ",
" o+o+++++++++++++++o+++++++++++++++o++++++++++X ",
" ooooooooooooooooooooooooooooooooooooooooooooo+ ",
"                                                "
};
