/* XPM */
static char *e5bb849be7cd43349e5460d4948609f9r6eXrRGufJaTQxDy[] = {
/* columns rows colors chars-per-pixel */
"48 48 15 1 ",
"  c #211F30",
". c #E44A4A",
"X c #F18B72",
"o c #9C1B4D",
"O c #F9BFA7",
"+ c #CC3048",
"@ c #CE8B16",
"# c #E1CA33",
"$ c #F7EC8A",
"% c white",
"& c #BA570B",
"* c #48475B",
"= c #62677A",
"- c #D8E1E4",
"; c #AFBBC3",
/* pixels */
"                                                ",
" .XXXXXo.                              o.XXXXXO ",
" +.      @#$$$$$$$$$$$$$$$$$$$$%$%%$%%%      .X ",
" + %$$#@ @#####################$#$$#$$$ #$$%% X ",
"  %$$##@     &&&&&&&&&&&&&&&&&&&&&&     ###$$%  ",
"  %$#     @@##########################     #$%  ",
"  $# +++ @@###$$$$$$$$$$$$$$$$$$$$$$$## ... #$  ",
"  %# +++ @@##$$#$$$$$$$$$$$$$%%$$%%$$$# ... #$  ",
"  $# +++ @@##$$$$$$$$$$$$$$$$%%$%%%%$$# ... #%  ",
"  $# +++ @@##$#$$$$$$$$$$$$$$$$$%%%%$$# ... #%  ",
"  $# ooo @@##$$$$$$$$$$$$$$$$$$$$%%$$$# ooo #$  ",
"  $# ... @@##$$$$$$$$$$$$$$$$$$$$$$$$$# ... #$  ",
"  $# ... @@##$$$$$$$$$$$$$$$$$$$$$$%$$# ... #$  ",
"  $# ... @@##$$$$$$$$$$$$$$$$$$$$$$$$$# ... #$  ",
"  $# ... @@##$$$$$$$$$$$$$$$$$$$$$$$$$# ... #$  ",
"  $$#    @@##$$#$$$$$$$$$$$$$$$$$$$$$$#    #$$  ",
"  #$$$#@ @@###$$$##$$$$$$$$$$$$$$#$$$## #$$$$#  ",
" o ####@ @@####$$##$$#$$$$$$$$$$$$$$### ##### X ",
" o+       @@#####$$$$$$$$$$$$$$$$$####       .X ",
" o+++++o. @@@########################@ o......X ",
" o+++++ .. @@@@####################@@ . ....... ",
"  oooo   oo  @@@@@@@@@@@@@@@@@@@@@@  o   oo   o ",
" o++++++++++           &&          ......... .X ",
" o++++++++++o.......  ####  o...............o.X ",
" o++++++++++o....... #$$$$$ o...............o.X ",
" o++++++++++ ....... #$$$$$  ............... .. ",
" o   oooooo   oooo    &&&&    oooo   oooooo   o ",
" o+ .............. @#$$$$$$%% ..... ..........X ",
" o+o.............. @#$$$$$$$$ .....o..........X ",
" o+o.............. @######### .....o..........X ",
" o+o...............   &&#&   ......o..........X ",
" o+ ...............  ###### ....... ........... ",
" o   ooooooooooooo   #$$$$$ oooooo   oooooooooo ",
" o+++++o........... ##$$$$$# ..........o......X ",
" o+++++o.....      #####$$###      ....o......X ",
" o+++++o.... ##$$$$$$$$$$$$$$$$%$%% ...o......X ",
" o+++++ ... @####################### .. ....... ",
"  oooo   oo @@@@@@@@@@@@@@@@@@@@@@@@ o   oo   o ",
" o+++++                                  ... .X ",
" o+++++ *===%%%%====%%%%====%%%%====%%%% ...o.X ",
" o+++++  ***----****----****----****---% ...o.X ",
" o+++++  ***----****----****----****---% ... .. ",
" o   oo  ***----****----****----****---% oo   o ",
" o+ +++ ;---****----****----****----***= +++++X ",
" o+o+++ ;---****----****----****----***= +++++X ",
" o+o+++ ;;;;    ;;;;    ;;;;    ;;;;   * +++++X ",
" ooooooooooooooooooooooooooooooooooooooooooooo+ ",
"                                                "
};
