/* XPM */
static char *eb782d5288344018d7a8cffddcada79e5eK3RkLT4OJbAOf5[] = {
/* columns rows colors chars-per-pixel */
"48 48 180 2 ",
"   c #0E0E0E",
".  c #070604",
"X  c #130C0B",
"o  c #0F0E14",
"O  c #100F17",
"+  c #1E0E10",
"@  c #131315",
"#  c #13121B",
"$  c #1B1A1C",
"%  c #1F1D13",
"&  c #281604",
"*  c #240E11",
"=  c #281917",
"-  c #391616",
";  c #2A2719",
":  c #322F1C",
">  c #39311E",
",  c #161520",
"<  c #181723",
"1  c #1E1D24",
"2  c #1D1C2A",
"3  c #201F26",
"4  c #211F2D",
"5  c #3C1021",
"6  c #331E28",
"7  c #211F30",
"8  c #242325",
"9  c #2F2D21",
"0  c #272729",
"q  c #2A2A2C",
"w  c #33262A",
"e  c #3E2628",
"r  c #382B2E",
"t  c #362A29",
"y  c #383525",
"u  c #34322C",
"i  c #3B3826",
"p  c #2D2D31",
"a  c #252331",
"s  c #362F32",
"d  c #333334",
"f  c #3B3A30",
"g  c #353539",
"h  c #37383B",
"j  c #3C3A3D",
"k  c #50280A",
"l  c #4D360F",
"z  c #593E0E",
"x  c #50311A",
"c  c #400D21",
"v  c #4D0E27",
"b  c #511029",
"n  c #5A102D",
"m  c #5B1B35",
"M  c #771C2B",
"N  c #671233",
"B  c #601936",
"V  c #6A1B3A",
"C  c #74193D",
"Z  c #711438",
"A  c #6A1A27",
"S  c #542020",
"D  c #5D2020",
"F  c #4F3523",
"G  c #6E2627",
"H  c #762828",
"J  c #77202E",
"K  c #7D303D",
"L  c #4D131C",
"P  c #55461B",
"I  c #5F561A",
"U  c #65450C",
"Y  c #76500D",
"T  c #735116",
"R  c #6E631A",
"E  c #524D29",
"W  c #5D5627",
"Q  c #454334",
"!  c #59563E",
"~  c #5E5835",
"^  c #4C4725",
"/  c #605C36",
"(  c #68643D",
")  c #3B3B4A",
"_  c #762444",
"`  c #3D4042",
"'  c #414153",
"]  c #48475B",
"[  c #515354",
"{  c #595C5D",
"}  c #565B5F",
"|  c #494B4E",
" . c #646143",
".. c #797444",
"X. c #5A5D60",
"o. c #545868",
"O. c #4F5463",
"+. c #5E6468",
"@. c #696969",
"#. c #62677A",
"$. c #832B2B",
"%. c #8D2E2E",
"&. c #872030",
"*. c #8D2738",
"=. c #8C2536",
"-. c #97283A",
";. c #962436",
":. c #973131",
">. c #9C3839",
",. c #9D3535",
"<. c #A1283B",
"1. c #B12A3E",
"2. c #A93B3B",
"3. c #A53737",
"4. c #BA3F3F",
"5. c #B43A3A",
"6. c #B8560B",
"7. c #AD510B",
"8. c #966715",
"9. c #81741E",
"0. c #9F701E",
"q. c #AB7415",
"w. c #B87D16",
"e. c #9E4D0F",
"r. c #801942",
"t. c #8D1A46",
"y. c #9C1B4D",
"u. c #872048",
"i. c #B32C41",
"p. c #CC3048",
"a. c #BD4142",
"s. c #817B48",
"d. c #C54040",
"f. c #CB4444",
"g. c #D14444",
"h. c #E44A4A",
"j. c #BD8014",
"k. c #9A8B29",
"l. c #9F902E",
"z. c #A39225",
"x. c #B7A429",
"c. c #BBA92D",
"v. c #CE8B16",
"b. c #C1AE2E",
"n. c #C8B42F",
"m. c #CEB92F",
"M. c #C6B22E",
"N. c #D1BC2F",
"B. c #C1AE33",
"V. c #DCC632",
"C. c #DFC833",
"Z. c #E1CA33",
"A. c #8E874F",
"S. c #8E8850",
"D. c #908A51",
"F. c #9F9959",
"G. c #AAA364",
"H. c #B2AA64",
"J. c #B2AB6C",
"K. c #C6BD6E",
"L. c #CCC474",
"P. c #E2D87E",
"I. c #838C93",
"U. c #8B959B",
"Y. c #8D9092",
"T. c #B2B7B9",
"R. c gray72",
"E. c #B0B8BA",
"W. c #E6DC80",
"Q. c #F2E787",
"!. c #F6EB8A",
"~. c #F2E788",
"^. c #AFBBC3",
"/. c #C0C9CB",
"(. c #C6CED1",
"). c #CFD0D0",
"_. c #D4D4D5",
"`. c #D8E1E4",
"'. c #E8E8E8",
"]. c white",
/* pixels */
"1 1 1 1 1 1 1 1 1 1 1 1 1 1 1 1 1 1 1 1 1 8 d 8   8 d 8 1 1 1 1 1 1 1 1 1 1 1 1 1 1 1 1 1 1 1 1 ",
"8 8 8 8 8 8 8 8 8 8 8 8 8 8 8 8 8 8 8 8 8 8 8 8 . 8 8 8 8 8 8 8 8 8 8 8 8 8 8 8 8 8 8 8 8 8 8 8 ",
"# L X O # o . o # U X / D.s.% E D.A.: : S.S.i ; K.; i S.S.: : Y.D.[ $ s.Y.@.@ O # o . o # G X o ",
"7 K q R.!.J.q Y 7 0.d R Z.B.f I Z.V.Q ; V.C.~ @ N.@ ~ C.V.; Q ~.Z.( j B.!...d a Z.A.q R.].< q p ",
"7 0 q H.!.l.q Y 7 4 d # 7 e.u k 6.6.y = 6.6.F   7.  F 6.6.= y 6.6.k u 4 7 # d 4 Z.9.q G.!.R.q 0 ",
"7 2 q H.Z.2 8 # 7 2 p U Z.c.u I Z.V.y ; V.C.E   N.  E C.V.; y V.Z.I u c.Z.R p 2 4 # 8 k.!.R.q 2 ",
"7 2 q z.7 *.8 M 7 8.p R Z.c.d ( !.Q.f 9 Q.~.!   W.  ! ~.Q.9 f Q.!.( d L.!.R p 2 h.$.8 2 Z.H.q 2 ",
"7 2 q z.7 *.8 M 7 8.p R Z.L.d I !.Q.f 9 Q.~.!   W.  ! ~.Q.d j Q.!.@.g L.!...p 2 h.$.8 2 Z.H.q 2 ",
"7 2 q z.7 *.8 M 7 8.p R Z.L.d ( !.Q.f 9 Q.~.!   W.  ! ~.Q.d j Q.].@.g _.!...p 2 h.$.8 2 Z.R.q 2 ",
"7 2 q z.7 *.8 M 7 8.p R Z.L.u ( !.Q.f 9 Q.~.!   W.  ! ~.Q.9 f Q.].@.g _.!...p 2 h.$.8 2 Z.R.q 2 ",
"4 2 q z.7 V 8 n 7 8.p R Z.L.d ( !.Q.f 9 Q.~.!   W.  ! ~.Q.9 f Q.!.@.g L.!...p 2 y.n 8 2 Z.H.q 2 ",
"4 2 q z.7 >.8 $.7 8.p R Z.L.d ( !.Q.f 9 Q.~.!   W.  ! ~.Q.9 f Q.!.( d L.!...p 2 h.$.8 2 Z.H.q 2 ",
"4 2 q z.7 >.8 $.7 8.p R Z.L.d ( !.Q.f 9 Q.~.!   W.  ! ~.Q.9 f Q.!.( d _.!...p 2 h.$.8 2 Z.H.q 2 ",
"4 2 q z.7 >.8 $.7 8.p R Z.L.d ( !.Q.f 9 Q.~.!   W.  ! ~.Q.9 f Q.!.( d L.!...p 2 h.$.8 2 Z.H.q 2 ",
"4 2 q z.7 >.8 $.7 8.p R Z.L.d ( !.Q.f 9 Q.~.!   W.  ! ~.Q.9 f Q.!.( d L.!...p 2 h.$.8 2 Z.H.q 2 ",
"7 2 q H.Z.2 8 # 7 8.p R Z.L.d I !.Q.f 9 Q.~.!   W.  ! ~.Q.9 f Q.!.( d L.!...p 2 7 # 8 k.!.H.q 2 ",
"7 2 q H.!.G.8 Y 7 8.p R Z.c.d ( !.V.y 9 Q.~.!   W.  ! ~.Q.9 f Q.!.I d L.!.R p 2 Z.A.8 G.!.z.q 2 ",
"7 m q z.Z.k.8 Y 7 8.p R Z.c.u ( !.V.y 9 Q.C.!   W.  ! ~.Q.9 f Q.!.( d L.Z.R p 2 Z.9.8 k.Z.< q 2 ",
"7 m q < 7 2 8 # 7 2 p U Z.c.u I Z.Q.f 9 ~.~.!   W.  ! ~.Q.9 f Q.!.( u c.Z.R p 2 7 # 8 2 7 3.q 2 ",
"7 m q ;.p.*.8 n h.2 p U v.c.u I Z.V.y ; M.n.^   N.  ^ n.M.; y V.Z.I u c.Z.U p C h.$.8 >.h.3.q 2 ",
"7 m q ;.p.*.8 # h.2.p U v.q.u I Z.b.; q q q q 8 k.8 q q q q ; b.Z.I u q.v.# p 2 h.$.8 >.h.3.q 2 ",
"7 2 q Z y.V 8 # 7 C p # 7 q.u z v.T p d d d d d & d d d d d p T v.z u 2 7 v p 2 7 n 8 2 7 < q 2 ",
"2 V w -.i.-.w =.i.-.w &.4 2 8 < 2 < d d d d d d & d d d d d d < 2 < 8 4.f.:.w 2.f.,.e 2.2 2.r 1 ",
"0 0 0 0 0 0 0 0 0 0 0 0 0 0 0 0 0 1 d d d d d d . d d d d d d 1 0 0 0 0 0 0 0 0 0 0 0 0 0 0 0 0 ",
"@ @ @ @ @ @ @ @ @ @ @ @ @ @ @ @ @ @ d d d p d 0 . 0 d p d d d @ @ @ @ @ @ @ @ @ @ @ @ @ @ @ @ @ ",
"2 N + =.1.;.* M 1.<.* M 2 4.- G d.G d d d d $ d : d $ d d d d G d.G - 4.d.$.* 5.d.%.* 3.2 3.+ , ",
"7 _ q , 7 _ q b y.u.d O 7 a g 5 y.m d d d d d q & q d d d d d m y.5 d a 7 c d u.y.b q a 7 , q a ",
"7 V q , h.2.q H h.a.p D h.f.s S h.f.8 $ $ $ $ . F.. $ $ $ $ w f.h.S s 4 h.D p a.h.H q i.h.:.q 8 ",
"7 B q N h.2.8 H h.4.q D h.f.r S h.h.1 = c.P.! @ L.@ ! P.L.@ e h.h.S r t.h.D q 4.h.H 8 2.h.:.q 1 ",
"7 B q N h.2.8 H h.4.q D h.f.r S h.h.2 ; m.Z.W @ x.@ W Z.m.$ e h.h.S r t.h.D q 4.h.H 8 2.h.:.q 1 ",
"7 B q N h.2.8 H h.4.q D h.f.r S h.h.e $ 2 7 x @ x.@ 2 7 2 = e h.h.S r t.h.D q 4.h.H 8 2.h.:.q 1 ",
"7 B q , h.2.8 H h.4.q D h.f.r S h.h.e $ 2 Z.W @ x.@ W 7 g.= e h.h.S r 2 h.D q 4.h.H 8 2.h.:.q 1 ",
"7 B q , 7 C 8 b y.r.q c y.t.w 5 y.y.3 $ 2 Z. .@ L.@  .7 t.= 6 y.y.5 0 2 7 c q r.y.b 8 C y.N q 1 ",
"7 B q &.p.-.8 b h.4.q D h.f.r S h.h.e $ m.Z. .@ L.@  .Z.2 = e h.h.S r f.h.D q r.h.H 8 2.h.:.q 1 ",
"7 B q &.p.-.8 b h.4.q D h.2 0 @ 7 7 2 ; m.Z.W @ L.@ W Z.m.$ 2 7 7 @ 0 f.h.D q r.h.H 8 2.h.:.q 1 ",
"7 B q &.p.-.8 b h.4.q D 7 n.f ~ !.!.Q 9 P.!. .@ L.@  .!.P.9 Q ].!.{ j 2 h.D q r.h.H 8 2.h.:.q 1 ",
"7 B q &.p.-.8 # h.4.q o v.n.f P Z.Z.i ; m.Z.W @ x.@ W Z.m.; i Z.Z.P f n.7 D q 2 h.H 8 2.h.:.q 1 ",
"7 1 q N y.C 8 # 7 r.q o v.w.u l v.v.> ; j.v.P @ q.@ P v.j.; > v.v.l u w.7 c q 2 7 b 8 2 7 , q 1 ",
"7 B q &.p.-.8 # 7 2 q o 7 2 0 @ 7 7 2 $ 2 7 2 @ 2 @ 2 4 2 $ 2 7 7 @ 0 2 7 o q 2 7 H 8 2.7 :.q 1 ",
"7 B q &.p.-.8 # ] o.q p ].'.j { #.#.p 8 '.].@.@ O.@ g #.'.d | ].#.p p o.].@.q ).7 H 8 2.y.:.q 1 ",
"7 B q &.p.-.8 # 7 ) q 2 `./.h [ ] ] 0 1 (.`.X.@ ) @ p ] (.q ` `.] 3 q ' `.{ q ).7 H 8 2.y.:.q 1 ",
"7 B q &.p.-.8 # 7 ) q 2 `./.h [ ] ] 0 1 (.`.X.@ ) @ p ] (.q ` `.] 3 q ' `.{ q ).7 H 8 2.7 :.q 1 ",
"7 B q , 7 C 8 # 7 ) q 2 `./.h [ ] ] 0 1 (.`.X.@ ) @ p ] (.q ` `.] 3 q ' `.{ q ).7 b 8 2 7 , q 1 ",
"7 B q , p.-.8 # ^.E.q { ] ' q 8 `.`.` q ' ] p @ E.@ X.`.' 1 0 ] `.[ h /.] 2 q o.7 A 8 -.p.&.q 1 ",
"7 B q N p.-.8 # ^.E.q { ] ' q 3 `.`.` q ' ] p @ E.@ X.`.' 1 0 ] `.[ h /.] 2 q o.7 A 8 -.p.&.q 1 ",
"2 B w N <.=.w < U.I.p +.2 2 2 < U.U.[ ` 2 2 8 8 I.j +.U.2 1 < 2 U.} ) I.2 $ 1 ) 2 J w =.<.&.t 2 ",
"0 0 0 0 0 0 0 0 0 0 0 0 0 0 0 0 0 0 0 0 0 0 d p X p d 0 0 0 0 0 0 0 0 0 0 0 0 0 0 0 0 0 0 0 0 0 ",
"@ @ @ @ @ @ @ @ @ @ @ @ @ @ @ @ @ @ @ @ @ @ @ @   @ @ @ @ @ @ @ @ @ @ @ @ @ @ @ @ @ @ @ @ @ @ @ "
};
