/* XPM */
static char *result[] = {
/* columns rows colors chars-per-pixel */
"48 48 13 1 ",
"  c #211F30",
". c #E44A4A",
"X c #F18B72",
"o c #9C1B4D",
"O c #F9BFA7",
"+ c #CC3048",
"@ c #A4CC42",
"# c #72A11D",
"$ c #28860F",
"% c #C8C395",
"& c #8B6F4C",
"* c white",
"= c #A7975F",
/* pixels */
"                                                ",
" .XXXXXo.XXXXXXXXXXXXXXo.XXXXXXXXXXXXXXo.XXXXXO ",
" +.....o...............o...............o......X ",
" +.....o...............o...............o......X ",
" +..... ............... ............... ....... ",
"  oooo   ooooooooooooo   oo   oooooooo   ooooo  ",
" o++++++++++o............... ...............o.X ",
" o++++++++++o...............o...............o.X ",
" o++++++++++o...............o...............o.X ",
" o++++++++++ ............... ............... .. ",
" o   oooooo   oooo   oooooo   oooo   oooooo   o ",
" o+ ............... ............... ..........X ",
" o+o...............o...............o..........X ",
" o+o...............o...............o..........X ",
" o+o...............o...............o..........X ",
" o+ ............... ............... ........... ",
" o   o   ooooooooo   ooooooooooooo   o   oooooo ",
" o+++++ ..............    ............. ......X ",
" o+++++o............  @ #$  ...........o......X ",
" o+++++o........... @#### %& ..........o......X ",
" o+++++ .......... @#**###%&& ......... ....... ",
"  oooo   oo   oooo @***# $%=& oooooooo   oo   o ",
" o++++++++++ .... $#**###%===& ............. .X ",
" o++++++++++o....  #####$%===& .............o.X ",
" o++++++++++o.... $$## $%====& .............o.X ",
" o++++++++++ .... $ $$==&====& ............. .. ",
" o   oooooo   oooo ===&&===== oooo   oooooo   o ",
" o+ .............. &&&&&&===& ..... ..........X ",
" o+o............... &&&&&&&& ......o..........X ",
" o+o...............o  &&&&  .......o..........X ",
" o+o...............o..    .........o..........X ",
" o+ ............... ............... ........... ",
" o   ooooooooooooo   o   ooooooooo   oooooooooo ",
" o+++++o............... ...............o......X ",
" o+++++o...............o...............o......X ",
" o+++++o...............o...............o......X ",
" o+++++ ............... ............... ....... ",
"  oooo   oo   oooooooo   ooooooooooooo   oo   o ",
" o++++++++++ ...............o............... .X ",
" o++++++++++o...............o...............o.X ",
" o++++++++++o...............o...............o.X ",
" o++++++++++ ............... ............... .. ",
" o   oooooo   oooo   oooooo   oooo   oooooo   o ",
" o+ +++++++++++++++ +++++++++++++++ ++++++++++X ",
" o+o+++++++++++++++o+++++++++++++++o++++++++++X ",
" o+o+++++++++++++++o+++++++++++++++o++++++++++X ",
" ooooooooooooooooooooooooooooooooooooooooooooo+ ",
"                                                "
};
