/* XPM */
static char *result[] = {
/* columns rows colors chars-per-pixel */
"48 48 39 1 ",
"  c #211F30",
". c #E44A4A",
"X c #F18B72",
"o c #9C1B4D",
"O c #F9BFA7",
"+ c #CC3048",
"@ c #72A11D",
"# c #28860F",
"$ c #076029",
"% c #196B27",
"& c #5B9919",
"* c #6E9F1D",
"= c #4A8921",
"- c #6C9D1E",
"; c #4C8A21",
": c #4B9316",
"> c #408F13",
", c #6FA01C",
"< c #4C9316",
"1 c #70A01D",
"2 c #75A41F",
"3 c #7CAA24",
"4 c #73A21E",
"5 c #75A31F",
"6 c #668E20",
"7 c #76A520",
"8 c #6E9B1E",
"9 c #7FAC27",
"0 c #7CA924",
"q c #628621",
"w c #7AA823",
"e c #73A21D",
"r c #82AE29",
"t c #83B029",
"y c #76A420",
"u c #7BA924",
"i c #80AD27",
"p c #88B42D",
"a c #77A621",
/* pixels */
"                                                ",
" .XXXXXo.XXXXXXXXXXXXXXo.XXXXXXXXXXXXXXo.XXXXXO ",
" +.....o...............o...............o......X ",
" +.....o...............o...............o......X ",
" +..... ............... ............... ....... ",
"  oooo   ooooooooooooo   oo   oooooooo   ooooo  ",
" o++++++++++o............... ...............o.X ",
" o++++++++++o...............o...............o.X ",
" o++++++++++o...............o...............o.X ",
" o++++++++++ ............... ............... .. ",
" o   oooooo   oooo   oooooo   oooo   oooooo   o ",
" o+ .........   ...      ...    ... ..........X ",
" o+o........ ... . @@@@@@ . @@@@ ..o..........X ",
" o+o........ +++o                ..o..........X ",
" o+o.........  o o+...+.++++.+... .o..........X ",
" o+ ........ +o    ooo+o++++o+oo  . ........... ",
" o   o   ooo .+ oo+++++++++++++++    o   oooooo ",
" o+++++ .... .+                   ..... ......X ",
" o+++++o.... .  ####$@@@@%&@@@@@*# ....o......X ",
" o+++++o.....  #@@@@#=@-;@@:@@@@>@ ....o......X ",
" o+++++ ...... @@@@@@@@@@@@@@@@@@@ .... ....... ",
"  oooo   oo    @@@@@@@@@@@@@@@@@@@ ooo   oo   o ",
" o++++++++++ . @@@@,@@@@@@@@@@@@<@ ......... .X ",
" o++++++++++o. @@@@@@@@@@1@@@@@@@@ .........o.X ",
" o++++++++++o.. #@@@@@@@@@@@@@@@# ..........o.X ",
" o++++++++++ ... ##@@@@@@@@@@@## ........... .. ",
" o   oooooo   ooo  @@@@@@@@@@@  oo   oooooo   o ",
" o+ ............ @@@@@@2@@3@4@@  .. ..........X ",
" o+o........... @@@@@@@@@@@@@5@6# .o..........X ",
" o+o.......... #@@# @@@@@7@4@@@8## o..........X ",
" o+o.......... ### @@@@@@@@@90@q## o..........X ",
" o+ ...........   #@@0@@@@we@r@   . ........... ",
" o   oooooooooooo #@@@tyuipa@@@ oo   oooooooooo ",
" o+++++o......... #@@        @@ .......o......X ",
" o+++++o......... #@# .o... #@# .......o......X ",
" o+++++o......... ## ..o... ## ........o......X ",
" o+++++ ..........  ... ....  ......... ....... ",
"  oooo   oo   oooooooo   ooooooooooooo   oo   o ",
" o++++++++++ ...............o............... .X ",
" o++++++++++o...............o...............o.X ",
" o++++++++++o...............o...............o.X ",
" o++++++++++ ............... ............... .. ",
" o   oooooo   oooo   oooooo   oooo   oooooo   o ",
" o+ +++++++++++++++ +++++++++++++++ ++++++++++X ",
" o+o+++++++++++++++o+++++++++++++++o++++++++++X ",
" o+o+++++++++++++++o+++++++++++++++o++++++++++X ",
" ooooooooooooooooooooooooooooooooooooooooooooo+ ",
"                                                "
};
