/* XPM */
static char *_15b07dad7754898d81899df3a4ee85bwcgXBMmhy5jVS4Z6[] = {
/* columns rows colors chars-per-pixel */
"48 48 7 1 ",
"  c #211F30",
". c #CF9E6E",
"X c #E4C997",
"o c #FBDFB1",
"O c #B96E54",
"+ c #A14744",
"@ c #843346",
/* pixels */
"                                                ",
" .XXXXXo O............................O .XXXXXo ",
" O+++++X +OOOOOOOOOOOOOOOOOOOOOOOOOOOO+ O+++++X ",
" O+OOOOX +OOOOOOOOOOOOOOOOOOOOOOOOOOOO+ O+OOO+X ",
" O+.+++X ++++OOOOOO+++++O+OOOOOOOOO+O++ O+++.+X ",
" O+.OO+X ++OOOOOOOOOOOOOOOOOOOOOOOOOOO+ OOOO.+X ",
" O+++++X ++++++++++++++++++++++++++++++ O+++++X ",
" +OOOOO. @++++++++++++++++++++++++++++@ +OOOOO. ",
"                                                ",
" O+++++@ .O                      +OOOO. @+++++O ",
" .O+++++ O+                      @++++O +++++O. ",
" .O+++++ O+                             +++++O. ",
" .O+O+++ O+                             +++O+O. ",
" .OOO+++ O+                             +++OOO. ",
" .O+O+++ +@                             +++OOO. ",
" .OOO+++                                +++OOO. ",
" .OOO+++                                +++OOO. ",
" .OOO+++                                +++OOO. ",
" .O+O+++                                +++OOO. ",
" .OOO+++                                +++O+O. ",
" .O+O+++                                +++OOO. ",
" .O+O+++                                +++O+O. ",
" .O+O+++                                +++O+O. ",
" .O+O+++                                +++OOO. ",
" .O+O+++                                +++O+O. ",
" .OOO+++                                +++O+O. ",
" .OOO+++                                +++O+O. ",
" .OOO+++                                +++O+O. ",
" .O+O+++                                +++O+O. ",
" .OOO+++                                +++O+O. ",
" .OOO+++                                +++OOO. ",
" .OOO+++                                +++OOO. ",
" .OOO+++                                +++OOO. ",
" .OOO+++                             O. +++OOO. ",
" .OOO+++                             +O +++O+O. ",
" .OOO+++                             +O +++OOO. ",
" .O+O+++                             +O +++O+O. ",
" .O+++++ .OOOO+                      +O +++++O. ",
" O+++++@ O++++@                      @+ @+++++O ",
"                                                ",
" .XXXXXo O............................O .XXXXXo ",
" O+++.+X +OOOOOOOOOOOOOOOOOOOOOOOOOOOO+ O+++++X ",
" O+O+.+X +OOOOOOOOOOOOOOOOOOOOOOOOOOOO+ O+OOO+X ",
" O+.+.+X +++O+OOOOOOO+O+++++O+OOOOOO+++ O+.+.+X ",
" O+.O.+X ++OOOOOOOOOOOOOOOOOOOOOOOOOO++ O+.+.+X ",
" O+++++X ++++++++++++++++++++++++++++++ O+.+++X ",
" +OOOOO. @++++++++++++++++++++++++++++@ +OOOOO. ",
"                                                "
};
